# xmcd
#
# Track frame offsets:
#      150
#      13899
#      26910
#      40881
#      57833
#      71896
#      88063
#      101781
#      117086
#      128483
#      140384
#
# Disc length: 2046 seconds
#
# Revision: 0
# Processed by: cddbd v1.4PL0 Copyright (c) Steve Scherf et al.
# Submitted via: SoundClick v1.0
#
DISCID=9a07fc0b
DTITLE=Phil Frazier - This and That
DYEAR=1900
DGENRE=
TTITLE0=I Count My Bessings
TTITLE1=Hang On L.a.
TTITLE2=Two More Minutes
TTITLE3=Ready To Cry
TTITLE4=Mess Outa Me
TTITLE5=Pretty Lights
TTITLE6=Is It You
TTITLE7=Ramblin' Train
TTITLE8=Love 'em, Leave 'em Kind
TTITLE9=Angel Let Me In
TTITLE10=She'll Never Love You
EXTD=
EXTT0=
EXTT1=
EXTT2=
EXTT3=
EXTT4=
EXTT5=
EXTT6=
EXTT7=
EXTT8=
EXTT9=
EXTT10=
PLAYORDER=
